<svg xmlns="http://www.w3.org/2000/svg" width="313" height="93" viewBox="0 0 313 93" fill="none"><rect y="8.91113" width="89.1492" height="3.52865" rx="0.641573" fill="white"/><path d="M99.3451 20.6753C98.5562 20.6753 98.3386 20.4577 98.3386 19.6687V1.2788C98.3386 0.489887 98.5562 0.272254 99.3451 0.272254H103.208C107.153 0.272254 108.948 1.74127 108.948 5.03296V6.6108C108.948 8.02541 108.486 9.03196 107.534 9.90249C107.452 9.9841 107.425 10.0113 107.425 10.0657C107.425 10.1201 107.452 10.1473 107.534 10.2289C108.567 11.0723 109.084 11.97 109.084 13.4118V16.0506C109.084 19.2063 107.207 20.6753 103.072 20.6753H99.3451ZM102.093 4.5705V7.69896C102.093 8.07982 102.202 8.18863 102.582 8.18863H103.154C104.487 8.18863 105.085 7.72616 105.085 6.52919V5.74027C105.085 4.54329 104.487 4.08082 103.154 4.08082H102.582C102.202 4.08082 102.093 4.18964 102.093 4.5705ZM103.29 16.8667C104.623 16.8667 105.221 16.4043 105.221 15.2073V13.6566C105.221 12.4597 104.623 11.9972 103.29 11.9972H102.582C102.202 11.9972 102.093 12.106 102.093 12.4869V16.3771C102.093 16.7579 102.202 16.8667 102.582 16.8667H103.29ZM118.691 4.08082H117.004C116.623 4.08082 116.514 4.18964 116.514 4.5705V19.6687C116.514 20.4577 116.297 20.6753 115.508 20.6753H113.767C112.978 20.6753 112.76 20.4577 112.76 19.6687V4.5705C112.76 4.18964 112.651 4.08082 112.27 4.08082H110.584C109.795 4.08082 109.577 3.86319 109.577 3.07427V1.2788C109.577 0.489887 109.795 0.272254 110.584 0.272254H118.691C119.48 0.272254 119.697 0.489887 119.697 1.2788V3.07427C119.697 3.86319 119.48 4.08082 118.691 4.08082ZM125.157 20.6753C123.579 20.6753 123.198 20.376 122.899 18.9614L120.886 9.49443C120.587 8.02541 120.559 7.37251 120.559 6.01231V1.2788C120.559 0.489887 120.777 0.272254 121.566 0.272254H123.307C124.096 0.272254 124.314 0.489887 124.314 1.2788V7.10047C124.314 7.48133 124.341 7.83498 124.395 8.24304L125.538 15.0985C125.592 15.4249 125.674 15.5065 125.919 15.5065C126.163 15.5065 126.245 15.4249 126.299 15.0985L127.442 8.24304C127.496 7.83498 127.524 7.48133 127.524 7.10047V1.2788C127.524 0.489887 127.741 0.272254 128.53 0.272254H130.271C131.06 0.272254 131.278 0.489887 131.278 1.2788V6.01231C131.278 7.15488 131.305 7.86218 130.951 9.49443L128.938 18.9614C128.639 20.376 128.258 20.6753 126.68 20.6753H125.157ZM147.673 14.6904C147.673 19.2879 146.367 20.9473 142.423 20.9473C138.478 20.9473 137.172 19.2879 137.172 14.6904V6.25715C137.172 1.68687 138.478 0.000213558 142.423 0.000213558C146.367 0.000213558 147.673 1.68687 147.673 6.25715V14.6904ZM141.035 15.6153C141.035 16.7035 141.471 17.1388 142.423 17.1388C143.375 17.1388 143.81 16.7035 143.81 15.6153V5.46823C143.81 4.27125 143.375 3.80878 142.423 3.80878C141.471 3.80878 141.035 4.27125 141.035 5.46823V15.6153ZM153.632 16.4315C153.632 16.7579 153.74 16.8667 154.121 16.8667H157.522C158.311 16.8667 158.528 17.0844 158.528 17.8733V19.6687C158.528 20.4577 158.311 20.6753 157.522 20.6753H150.884C150.095 20.6753 149.878 20.4577 149.878 19.6687V1.2788C149.878 0.489887 150.095 0.272254 150.884 0.272254H152.625C153.414 0.272254 153.632 0.489887 153.632 1.2788V16.4315ZM162.574 7.75337C162.737 7.75337 162.792 7.69896 162.846 7.42692L164.043 1.2788C164.206 0.489887 164.478 0.272254 165.213 0.272254H167.307C168.096 0.272254 168.314 0.598703 168.096 1.2788L164.587 12.9493C164.451 13.439 164.424 13.6022 164.424 14.3912V19.6687C164.424 20.4577 164.206 20.6753 163.417 20.6753H161.731C160.942 20.6753 160.724 20.4577 160.724 19.6687V14.3912C160.724 13.6022 160.697 13.439 160.561 12.9493L157.052 1.2788C156.834 0.598703 157.052 0.272254 157.84 0.272254H159.935C160.67 0.272254 160.942 0.489887 161.105 1.2788L162.302 7.42692C162.356 7.69896 162.411 7.75337 162.574 7.75337ZM175.944 12.3509C175.998 12.5685 176.08 12.6229 176.216 12.6229C176.352 12.6229 176.433 12.5685 176.488 12.3509L178.827 0.97956C178.936 0.408274 179.181 0.272254 179.861 0.272254H182.5C183.289 0.272254 183.506 0.489887 183.506 1.2788V19.6687C183.506 20.4577 183.289 20.6753 182.5 20.6753H181.248C180.46 20.6753 180.242 20.4577 180.242 19.6687V10.8546C180.242 10.6098 180.188 10.5554 180.024 10.5554C179.915 10.5554 179.807 10.6098 179.779 10.8002L177.848 19.7776C177.712 20.4305 177.413 20.6753 176.624 20.6753H175.889C175.073 20.6753 174.774 20.4305 174.638 19.7776L172.679 10.8002C172.625 10.6098 172.57 10.5554 172.434 10.5554C172.271 10.5554 172.217 10.6098 172.217 10.8546V19.6687C172.217 20.4577 171.999 20.6753 171.21 20.6753H169.959C169.17 20.6753 168.952 20.4577 168.952 19.6687V1.2788C168.952 0.489887 169.17 0.272254 169.959 0.272254H172.217C173.169 0.272254 173.523 0.489887 173.713 1.44203L175.944 12.3509ZM190.579 13.6839H190.225C189.844 13.6839 189.735 13.7927 189.735 14.1735V19.6687C189.735 20.4577 189.518 20.6753 188.729 20.6753H186.988C186.199 20.6753 185.981 20.4577 185.981 19.6687V1.2788C185.981 0.489887 186.199 0.272254 186.988 0.272254H190.579C194.714 0.272254 196.591 1.76848 196.591 5.44102V8.51508C196.591 12.1876 194.714 13.6839 190.579 13.6839ZM189.735 4.5705V9.38561C189.735 9.76647 189.844 9.87528 190.225 9.87528H190.796C192.129 9.87528 192.728 9.3312 192.728 7.9438V6.01231C192.728 4.6249 192.129 4.08082 190.796 4.08082H190.225C189.844 4.08082 189.735 4.18964 189.735 4.5705ZM201.637 1.2788V19.6687C201.637 20.4577 201.42 20.6753 200.631 20.6753H198.89C198.101 20.6753 197.883 20.4577 197.883 19.6687V1.2788C197.883 0.489887 198.101 0.272254 198.89 0.272254H200.631C201.42 0.272254 201.637 0.489887 201.637 1.2788ZM207.044 0.272254H210.472C211.696 0.272254 212.077 0.680316 212.213 1.68687L214.607 19.6687C214.716 20.4577 214.498 20.6753 213.709 20.6753H211.832C211.016 20.6753 210.825 20.4849 210.717 19.6687L210.363 16.7035C210.336 16.4315 210.254 16.3498 209.928 16.3498H207.588C207.262 16.3498 207.18 16.4315 207.153 16.7035L206.799 19.6687C206.69 20.4849 206.5 20.6753 205.684 20.6753H203.807C203.018 20.6753 202.8 20.4577 202.909 19.6687L205.303 1.68687C205.439 0.680316 205.82 0.272254 207.044 0.272254ZM209.248 5.82188C209.22 5.49543 209.057 5.44102 208.758 5.44102C208.459 5.44102 208.295 5.49543 208.268 5.82188L207.643 12.1604C207.615 12.4869 207.697 12.5685 208.051 12.5685H209.465C209.819 12.5685 209.9 12.4869 209.873 12.1604L209.248 5.82188Z" fill="white"/><rect x="223.188" y="8.91113" width="89.1492" height="3.52865" rx="0.641573" fill="white"/><path d="M297.754 79.2343C297.754 80.2065 298.078 80.5306 299.212 80.5306H309.34C311.689 80.5306 312.338 81.1787 312.338 83.5283V88.8755C312.338 91.2251 311.689 91.8732 309.34 91.8732H289.571C287.222 91.8732 286.573 91.2251 286.573 88.8755V34.1066C286.573 31.757 287.222 31.1089 289.571 31.1089H294.756C297.106 31.1089 297.754 31.757 297.754 34.1066V79.2343Z" fill="white"/><path d="M269.508 79.2343C269.508 80.2065 269.832 80.5306 270.967 80.5306H281.094C283.444 80.5306 284.092 81.1787 284.092 83.5283V88.8755C284.092 91.2251 283.444 91.8732 281.094 91.8732H261.325C258.976 91.8732 258.328 91.2251 258.328 88.8755V34.1066C258.328 31.757 258.976 31.1089 261.325 31.1089H266.511C268.86 31.1089 269.508 31.757 269.508 34.1066V79.2343Z" fill="white"/><path d="M231.967 31.1089H242.176C245.822 31.1089 246.956 32.3242 247.361 35.3219L254.491 88.8755C254.815 91.2251 254.167 91.8732 251.817 91.8732H246.227C243.796 91.8732 243.229 91.3061 242.905 88.8755L241.852 80.0445C241.771 79.2343 241.528 78.9912 240.555 78.9912H233.588C232.616 78.9912 232.373 79.2343 232.292 80.0445L231.238 88.8755C230.914 91.3061 230.347 91.8732 227.916 91.8732H222.326C219.977 91.8732 219.328 91.2251 219.653 88.8755L226.782 35.3219C227.187 32.3242 228.322 31.1089 231.967 31.1089ZM238.53 47.6368C238.449 46.6646 237.963 46.5025 237.072 46.5025C236.18 46.5025 235.694 46.6646 235.613 47.6368L233.75 66.5143C233.669 67.4865 233.912 67.7295 234.965 67.7295H239.178C240.231 67.7295 240.474 67.4865 240.393 66.5143L238.53 47.6368Z" fill="white"/><path d="M188.693 91.8732C186.343 91.8732 185.695 91.2251 185.695 88.8755V34.1066C185.695 31.757 186.343 31.1089 188.693 31.1089H200.198C211.945 31.1089 217.293 35.4839 217.293 45.2872V49.9864C217.293 54.1993 215.915 57.1971 213.08 59.7897C212.837 60.0327 212.756 60.1137 212.756 60.2758C212.756 60.4378 212.837 60.5188 213.08 60.7619C216.158 63.2735 217.698 65.9471 217.698 70.2411V78.1C217.698 87.4982 212.107 91.8732 199.793 91.8732H188.693ZM196.876 43.9099V53.2271C196.876 54.3614 197.2 54.6855 198.334 54.6855H200.036C204.006 54.6855 205.788 53.3081 205.788 49.7433V47.3937C205.788 43.8289 204.006 42.4516 200.036 42.4516H198.334C197.2 42.4516 196.876 42.7756 196.876 43.9099ZM200.441 80.5306C204.411 80.5306 206.193 79.1532 206.193 75.5884V70.9703C206.193 67.4055 204.411 66.0281 200.441 66.0281H198.334C197.2 66.0281 196.876 66.3522 196.876 67.4865V79.0722C196.876 80.2065 197.2 80.5306 198.334 80.5306H200.441Z" fill="white"/><path d="M165.069 43.9099V52.9841C165.069 54.0373 165.394 54.4424 166.528 54.4424H176.574C178.924 54.4424 179.572 55.0906 179.572 57.4401V62.7874C179.572 65.1369 178.924 65.7851 176.736 65.7851H166.528C165.394 65.7851 165.069 66.1092 165.069 67.2434V79.0722C165.069 80.1255 165.394 80.5306 166.528 80.5306H177.546C179.896 80.5306 180.544 81.1787 180.544 83.5283V88.8755C180.544 91.2251 179.896 91.8732 177.546 91.8732H156.887C154.537 91.8732 153.889 91.2251 153.889 88.8755V34.1066C153.889 31.757 154.537 31.1089 156.887 31.1089H177.546C179.896 31.1089 180.544 31.757 180.544 34.1066V39.4539C180.544 41.8034 179.896 42.4516 177.546 42.4516H166.528C165.394 42.4516 165.069 42.7756 165.069 43.9099Z" fill="white"/><path d="M136.824 79.2343C136.824 80.2065 137.148 80.5306 138.282 80.5306H148.409C150.759 80.5306 151.407 81.1787 151.407 83.5283V88.8755C151.407 91.2251 150.759 91.8732 148.409 91.8732H128.641C126.291 91.8732 125.643 91.2251 125.643 88.8755V34.1066C125.643 31.757 126.291 31.1089 128.641 31.1089H133.826C136.176 31.1089 136.824 31.757 136.824 34.1066V79.2343Z" fill="white"/><path d="M105.768 67.4055C105.606 66.7573 105.039 66.6763 104.715 67.2434L101.231 73.6439C100.826 74.4541 100.745 74.7782 100.745 75.7504V88.8755C100.745 91.2251 100.097 91.8732 97.747 91.8732H92.5618C90.2122 91.8732 89.5641 91.2251 89.5641 88.8755V34.1066C89.5641 31.757 90.2122 31.1089 92.5618 31.1089H97.585C99.9345 31.1089 100.583 31.757 100.583 34.1066V51.4447C100.583 52.0928 100.826 52.2549 101.231 52.2549C101.555 52.2549 101.798 52.1739 102.041 51.6067L110.386 34.1066C111.682 31.433 112.249 31.1089 115.328 31.1089H120.351C122.701 31.1089 123.187 32.3242 122.215 34.2686L112.817 52.9841C112.33 53.8753 112.33 54.2804 112.655 55.2526L122.863 88.4704C123.511 90.658 122.782 91.8732 120.594 91.8732H115.652C113.222 91.8732 112.411 91.2251 111.763 89.0376L105.768 67.4055Z" fill="white"/><path d="M84.2611 72.4288V74.8594C84.2611 87.9034 80.5343 92.6836 68.7865 92.6836C57.0387 92.6836 53.1498 87.9034 53.1498 74.8594V48.123C53.1498 35.079 57.0387 30.2988 68.7865 30.2988C80.5343 30.2988 84.2611 35.079 84.2611 48.123V50.5536C84.2611 52.9032 83.613 53.5513 81.2634 53.5513H76.0782C73.7286 53.5513 73.0805 52.9032 73.0805 50.5536V46.1786C73.0805 42.9378 71.7032 41.6415 68.8675 41.6415C66.0318 41.6415 64.6545 42.9378 64.6545 46.1786V76.8038C64.6545 80.0446 66.0318 81.3409 68.8675 81.3409C71.7032 81.3409 73.0805 80.0446 73.0805 76.8038V72.4288C73.0805 70.0792 73.7286 69.4311 76.0782 69.4311H81.2634C83.613 69.4311 84.2611 70.0792 84.2611 72.4288Z" fill="white"/><path d="M46.6264 34.1066V88.8755C46.6264 91.2251 45.9783 91.8732 43.6287 91.8732H38.4435C36.094 91.8732 35.4458 91.2251 35.4458 88.8755V34.1066C35.4458 31.757 36.094 31.1089 38.4435 31.1089H43.6287C45.9783 31.1089 46.6264 31.757 46.6264 34.1066Z" fill="white"/><path d="M13.6922 71.0513H12.639C11.5047 71.0513 11.1806 71.3754 11.1806 72.5097V88.8755C11.1806 91.2251 10.5325 91.8732 8.18293 91.8732H2.99771C0.648153 91.8732 0 91.2251 0 88.8755V34.1066C0 31.757 0.648153 31.1089 2.99771 31.1089H13.6922C26.0071 31.1089 31.5975 35.5649 31.5975 46.5025V55.6577C31.5975 66.5953 26.0071 71.0513 13.6922 71.0513ZM11.1806 43.9099V58.2503C11.1806 59.3846 11.5047 59.7086 12.639 59.7086H14.3404C18.3103 59.7086 20.0927 58.0883 20.0927 53.9563V48.2039C20.0927 44.072 18.3103 42.4516 14.3404 42.4516H12.639C11.5047 42.4516 11.1806 42.7756 11.1806 43.9099Z" fill="white"/></svg>