<svg xmlns="http://www.w3.org/2000/svg" width="311" height="98" viewBox="0 0 311 98" fill="none"><path d="M214.458 9.20898H266.15C282.893 9.20898 291.264 9.20898 297.39 13.0218C300.673 15.0648 303.442 17.8344 305.485 21.1169C309.298 27.2431 309.298 35.6144 309.298 52.357C309.298 69.0995 309.298 77.4708 305.485 83.597C303.442 86.8796 300.673 89.6491 297.39 91.6921C291.264 95.5049 282.893 95.5049 266.15 95.5049H44.8567C28.1142 95.5049 19.743 95.5049 13.6167 91.6921C10.3342 89.6491 7.56464 86.8796 5.52165 83.597C1.7088 77.4708 1.7088 69.0995 1.7088 52.357C1.7088 35.6144 1.7088 27.2431 5.52165 21.1169C7.56464 17.8344 10.3342 15.0648 13.6167 13.0218C19.743 9.20898 28.1142 9.20898 44.8568 9.20898H98.6849" stroke="white" stroke-width="3.41766" stroke-linejoin="round"/><path d="M107.951 17.665C107.277 17.665 107.091 17.4791 107.091 16.805V1.09238C107.091 0.418319 107.277 0.23237 107.951 0.23237H111.252C114.622 0.23237 116.156 1.48752 116.156 4.29999V5.64812C116.156 6.85678 115.761 7.7168 114.948 8.46059C114.878 8.53032 114.855 8.55356 114.855 8.60005C114.855 8.64654 114.878 8.66978 114.948 8.73951C115.831 9.46006 116.272 10.2271 116.272 11.459V13.7136C116.272 16.4099 114.669 17.665 111.136 17.665H107.951ZM110.299 3.90485V6.57786C110.299 6.90327 110.392 6.99625 110.717 6.99625H111.205C112.344 6.99625 112.856 6.60111 112.856 5.57839V4.90433C112.856 3.88161 112.344 3.48647 111.205 3.48647H110.717C110.392 3.48647 110.299 3.57944 110.299 3.90485ZM111.322 14.4109C112.461 14.4109 112.972 14.0158 112.972 12.9931V11.6682C112.972 10.6455 112.461 10.2503 111.322 10.2503H110.717C110.392 10.2503 110.299 10.3433 110.299 10.6687V13.9926C110.299 14.318 110.392 14.4109 110.717 14.4109H111.322ZM124.48 3.48647H123.039C122.714 3.48647 122.621 3.57944 122.621 3.90485V16.805C122.621 17.4791 122.435 17.665 121.761 17.665H120.273C119.599 17.665 119.413 17.4791 119.413 16.805V3.90485C119.413 3.57944 119.32 3.48647 118.995 3.48647H117.554C116.88 3.48647 116.694 3.30052 116.694 2.62646V1.09238C116.694 0.418319 116.88 0.23237 117.554 0.23237H124.48C125.154 0.23237 125.34 0.418319 125.34 1.09238V2.62646C125.34 3.30052 125.154 3.48647 124.48 3.48647ZM130.005 17.665C128.657 17.665 128.332 17.4094 128.076 16.2007L126.356 8.11194C126.1 6.85678 126.077 6.29894 126.077 5.13676V1.09238C126.077 0.418319 126.263 0.23237 126.937 0.23237H128.425C129.099 0.23237 129.285 0.418319 129.285 1.09238V6.0665C129.285 6.39191 129.308 6.69408 129.354 7.04273L130.331 12.9001C130.377 13.179 130.447 13.2488 130.656 13.2488C130.865 13.2488 130.935 13.179 130.981 12.9001L131.958 7.04273C132.004 6.69408 132.027 6.39191 132.027 6.0665V1.09238C132.027 0.418319 132.213 0.23237 132.887 0.23237H134.375C135.049 0.23237 135.235 0.418319 135.235 1.09238V5.13676C135.235 6.11299 135.258 6.71732 134.956 8.11194L133.236 16.2007C132.98 17.4094 132.655 17.665 131.307 17.665H130.005ZM149.243 12.5515C149.243 16.4796 148.128 17.8975 144.757 17.8975C141.387 17.8975 140.271 16.4796 140.271 12.5515V5.34595C140.271 1.44104 141.387 -6.54033e-05 144.757 -6.54033e-05C148.128 -6.54033e-05 149.243 1.44104 149.243 5.34595V12.5515ZM143.572 13.3417C143.572 14.2715 143.944 14.6434 144.757 14.6434C145.571 14.6434 145.943 14.2715 145.943 13.3417V4.67189C145.943 3.64917 145.571 3.25403 144.757 3.25403C143.944 3.25403 143.572 3.64917 143.572 4.67189V13.3417ZM154.335 14.039C154.335 14.318 154.427 14.4109 154.753 14.4109H157.658C158.332 14.4109 158.518 14.5969 158.518 15.271V16.805C158.518 17.4791 158.332 17.665 157.658 17.665H151.987C151.313 17.665 151.127 17.4791 151.127 16.805V1.09238C151.127 0.418319 151.313 0.23237 151.987 0.23237H153.475C154.149 0.23237 154.335 0.418319 154.335 1.09238V14.039ZM161.975 6.62435C162.114 6.62435 162.161 6.57786 162.207 6.34543L163.23 1.09238C163.37 0.418319 163.602 0.23237 164.23 0.23237H166.019C166.693 0.23237 166.879 0.511293 166.693 1.09238L163.695 11.0639C163.579 11.4823 163.555 11.6217 163.555 12.2958V16.805C163.555 17.4791 163.37 17.665 162.695 17.665H161.254C160.58 17.665 160.394 17.4791 160.394 16.805V12.2958C160.394 11.6217 160.371 11.4823 160.255 11.0639L157.256 1.09238C157.071 0.511293 157.256 0.23237 157.931 0.23237H159.72C160.348 0.23237 160.58 0.418319 160.72 1.09238L161.743 6.34543C161.789 6.57786 161.835 6.62435 161.975 6.62435ZM173.398 10.5525C173.445 10.7385 173.514 10.7849 173.631 10.7849C173.747 10.7849 173.817 10.7385 173.863 10.5525L175.862 0.836703C175.955 0.348588 176.164 0.23237 176.745 0.23237H179C179.674 0.23237 179.86 0.418319 179.86 1.09238V16.805C179.86 17.4791 179.674 17.665 179 17.665H177.931C177.257 17.665 177.071 17.4791 177.071 16.805V9.27411C177.071 9.06492 177.024 9.01844 176.885 9.01844C176.792 9.01844 176.699 9.06492 176.676 9.22763L175.025 16.898C174.909 17.4558 174.653 17.665 173.979 17.665H173.352C172.654 17.665 172.399 17.4558 172.283 16.898L170.609 9.22763C170.563 9.06492 170.516 9.01844 170.4 9.01844C170.26 9.01844 170.214 9.06492 170.214 9.27411V16.805C170.214 17.4791 170.028 17.665 169.354 17.665H168.285C167.611 17.665 167.425 17.4791 167.425 16.805V1.09238C167.425 0.418319 167.611 0.23237 168.285 0.23237H170.214C171.027 0.23237 171.33 0.418319 171.492 1.23184L173.398 10.5525ZM185.903 11.6914H185.601C185.275 11.6914 185.182 11.7844 185.182 12.1098V16.805C185.182 17.4791 184.996 17.665 184.322 17.665H182.835C182.161 17.665 181.975 17.4791 181.975 16.805V1.09238C181.975 0.418319 182.161 0.23237 182.835 0.23237H185.903C189.436 0.23237 191.04 1.51077 191.04 4.64865V7.27517C191.04 10.413 189.436 11.6914 185.903 11.6914ZM185.182 3.90485V8.01896C185.182 8.34437 185.275 8.43735 185.601 8.43735H186.089C187.228 8.43735 187.739 7.97248 187.739 6.78705V5.13676C187.739 3.95134 187.228 3.48647 186.089 3.48647H185.601C185.275 3.48647 185.182 3.57944 185.182 3.90485ZM195.351 1.09238V16.805C195.351 17.4791 195.165 17.665 194.491 17.665H193.004C192.33 17.665 192.144 17.4791 192.144 16.805V1.09238C192.144 0.418319 192.33 0.23237 193.004 0.23237H194.491C195.165 0.23237 195.351 0.418319 195.351 1.09238ZM199.971 0.23237H202.9C203.946 0.23237 204.271 0.581024 204.387 1.44104L206.433 16.805C206.526 17.4791 206.34 17.665 205.666 17.665H204.062C203.364 17.665 203.202 17.5023 203.109 16.805L202.807 14.2715C202.783 14.039 202.714 13.9693 202.435 13.9693H200.436C200.157 13.9693 200.087 14.039 200.064 14.2715L199.762 16.805C199.669 17.5023 199.506 17.665 198.809 17.665H197.205C196.531 17.665 196.345 17.4791 196.438 16.805L198.483 1.44104C198.6 0.581024 198.925 0.23237 199.971 0.23237ZM201.854 4.97406C201.83 4.69513 201.691 4.64865 201.435 4.64865C201.18 4.64865 201.04 4.69513 201.017 4.97406L200.482 10.3898C200.459 10.6687 200.529 10.7385 200.831 10.7385H202.04C202.342 10.7385 202.411 10.6687 202.388 10.3898L201.854 4.97406Z" fill="white"/><path d="M276.621 67.2533C276.621 68.084 276.898 68.3609 277.867 68.3609H286.52C288.528 68.3609 289.082 68.9147 289.082 70.9222V75.491C289.082 77.4985 288.528 78.0523 286.52 78.0523H269.63C267.622 78.0523 267.069 77.4985 267.069 75.491V28.6956C267.069 26.6881 267.622 26.1343 269.63 26.1343H274.06C276.068 26.1343 276.621 26.6881 276.621 28.6956V67.2533Z" fill="white"/><path d="M252.488 67.2533C252.488 68.084 252.765 68.3609 253.734 68.3609H262.387C264.394 68.3609 264.948 68.9147 264.948 70.9222V75.491C264.948 77.4985 264.394 78.0523 262.387 78.0523H245.496C243.488 78.0523 242.935 77.4985 242.935 75.491V28.6956C242.935 26.6881 243.488 26.1343 245.496 26.1343H249.926C251.934 26.1343 252.488 26.6881 252.488 28.6956V67.2533Z" fill="white"/><path d="M220.412 26.1343H229.134C232.25 26.1343 233.219 27.1726 233.565 29.7339L239.656 75.491C239.933 77.4985 239.38 78.0523 237.372 78.0523H232.596C230.519 78.0523 230.034 77.5677 229.757 75.491L228.858 67.9456C228.788 67.2533 228.581 67.0457 227.75 67.0457H221.797C220.966 67.0457 220.758 67.2533 220.689 67.9456L219.789 75.491C219.512 77.5677 219.028 78.0523 216.951 78.0523H212.175C210.167 78.0523 209.613 77.4985 209.89 75.491L215.982 29.7339C216.328 27.1726 217.297 26.1343 220.412 26.1343ZM226.019 40.256C225.95 39.4253 225.535 39.2868 224.773 39.2868C224.012 39.2868 223.597 39.4253 223.527 40.256L221.935 56.3852C221.866 57.2158 222.074 57.4235 222.973 57.4235H226.573C227.473 57.4235 227.681 57.2158 227.612 56.3852L226.019 40.256Z" fill="white"/><path d="M183.437 78.0523C181.43 78.0523 180.876 77.4985 180.876 75.491V28.6956C180.876 26.6881 181.43 26.1343 183.437 26.1343H193.267C203.305 26.1343 207.873 29.8724 207.873 38.2485V42.2635C207.873 45.8631 206.697 48.4244 204.274 50.6396C204.066 50.8472 203.997 50.9165 203.997 51.0549C203.997 51.1934 204.066 51.2626 204.274 51.4703C206.904 53.6162 208.22 55.9006 208.22 59.5695V66.2842C208.22 74.3142 203.443 78.0523 192.921 78.0523H183.437ZM190.429 37.0717V45.0324C190.429 46.0016 190.706 46.2785 191.675 46.2785H193.129C196.521 46.2785 198.044 45.1017 198.044 42.0558V40.0483C198.044 37.0024 196.521 35.8256 193.129 35.8256H191.675C190.706 35.8256 190.429 36.1025 190.429 37.0717ZM193.475 68.3609C196.867 68.3609 198.39 67.1841 198.39 64.1383V60.1925C198.39 57.1466 196.867 55.9698 193.475 55.9698H191.675C190.706 55.9698 190.429 56.2467 190.429 57.2159V67.1149C190.429 68.084 190.706 68.3609 191.675 68.3609H193.475Z" fill="white"/><path d="M163.253 37.0717V44.8248C163.253 45.7247 163.53 46.0708 164.499 46.0708H173.083C175.09 46.0708 175.644 46.6246 175.644 48.6321V53.2009C175.644 55.2084 175.09 55.7621 173.221 55.7621H164.499C163.53 55.7621 163.253 56.039 163.253 57.0082V67.1149C163.253 68.0148 163.53 68.3609 164.499 68.3609H173.913C175.921 68.3609 176.475 68.9147 176.475 70.9222V75.491C176.475 77.4985 175.921 78.0523 173.913 78.0523H156.261C154.254 78.0523 153.7 77.4985 153.7 75.491V28.6956C153.7 26.6881 154.254 26.1343 156.261 26.1343H173.913C175.921 26.1343 176.475 26.6881 176.475 28.6956V33.2644C176.475 35.2718 175.921 35.8256 173.913 35.8256H164.499C163.53 35.8256 163.253 36.1025 163.253 37.0717Z" fill="white"/><path d="M139.12 67.2533C139.12 68.084 139.397 68.3609 140.366 68.3609H149.019C151.026 68.3609 151.58 68.9147 151.58 70.9222V75.491C151.58 77.4985 151.026 78.0523 149.019 78.0523H132.128C130.121 78.0523 129.567 77.4985 129.567 75.491V28.6956C129.567 26.6881 130.121 26.1343 132.128 26.1343H136.559C138.566 26.1343 139.12 26.6881 139.12 28.6956V67.2533Z" fill="white"/><path d="M112.585 57.1466C112.447 56.5928 111.962 56.5236 111.685 57.0082L108.709 62.4769C108.363 63.1691 108.293 63.446 108.293 64.2767V75.491C108.293 77.4985 107.74 78.0523 105.732 78.0523H101.302C99.2942 78.0523 98.7404 77.4985 98.7404 75.491V28.6956C98.7404 26.6881 99.2942 26.1343 101.302 26.1343H105.594C107.601 26.1343 108.155 26.6881 108.155 28.6956V43.5095C108.155 44.0633 108.363 44.2017 108.709 44.2017C108.986 44.2017 109.193 44.1325 109.401 43.648L116.531 28.6956C117.639 26.4112 118.123 26.1343 120.754 26.1343H125.046C127.053 26.1343 127.468 27.1726 126.638 28.834L118.608 44.8248C118.192 45.5862 118.192 45.9323 118.469 46.763L127.191 75.1449C127.745 77.0139 127.122 78.0523 125.253 78.0523H121.031C118.954 78.0523 118.262 77.4985 117.708 75.6294L112.585 57.1466Z" fill="white"/><path d="M94.2097 61.4389V63.5156C94.2097 74.6606 91.0254 78.7449 80.9879 78.7449C70.9504 78.7449 67.6277 74.6606 67.6277 63.5156V40.6717C67.6277 29.5266 70.9504 25.4424 80.9879 25.4424C91.0254 25.4424 94.2097 29.5266 94.2097 40.6717V42.7484C94.2097 44.7559 93.6559 45.3097 91.6484 45.3097H87.2181C85.2106 45.3097 84.6568 44.7559 84.6568 42.7484V39.0103C84.6568 36.2413 83.48 35.1337 81.0571 35.1337C78.6343 35.1337 77.4575 36.2413 77.4575 39.0103V65.177C77.4575 67.9459 78.6343 69.0535 81.0571 69.0535C83.48 69.0535 84.6568 67.9459 84.6568 65.177V61.4389C84.6568 59.4314 85.2106 58.8776 87.2181 58.8776H91.6484C93.6559 58.8776 94.2097 59.4314 94.2097 61.4389Z" fill="white"/><path d="M62.0539 28.6956V75.491C62.0539 77.4985 61.5002 78.0523 59.4927 78.0523H55.0623C53.0548 78.0523 52.501 77.4985 52.501 75.491V28.6956C52.501 26.6881 53.0548 26.1343 55.0623 26.1343H59.4927C61.5002 26.1343 62.0539 26.6881 62.0539 28.6956Z" fill="white"/><path d="M33.914 60.2617H33.0141C32.045 60.2617 31.7681 60.5386 31.7681 61.5077V75.491C31.7681 77.4985 31.2143 78.0523 29.2068 78.0523H24.7764C22.7689 78.0523 22.2151 77.4985 22.2151 75.491V28.6956C22.2151 26.6881 22.7689 26.1343 24.7764 26.1343H33.914C44.4361 26.1343 49.2125 29.9416 49.2125 39.2868V47.1091C49.2125 56.4544 44.4361 60.2617 33.914 60.2617ZM31.7681 37.0717V49.3243C31.7681 50.2935 32.045 50.5703 33.0141 50.5703H34.4678C37.8598 50.5703 39.3827 49.1859 39.3827 45.6554V40.7405C39.3827 37.2101 37.8598 35.8256 34.4678 35.8256H33.0141C32.045 35.8256 31.7681 36.1025 31.7681 37.0717Z" fill="white"/></svg>