<svg xmlns="http://www.w3.org/2000/svg" width="176" height="176" viewBox="0 0 176 176" fill="none"><path d="M88 0.5C39.6735 0.5 0.5 39.6735 0.5 88C0.5 136.327 39.6735 175.5 88 175.5C136.327 175.5 175.5 136.324 175.5 88C175.5 39.6763 136.324 0.5 88 0.5ZM10.0104 102.576C9.92251 103.702 9.758 104.638 9.53109 105.322C9.27865 106.088 8.94395 106.542 8.52984 106.598C6.97833 106.811 4.9418 101.334 3.9831 94.3649C3.01872 87.3959 3.50091 81.5727 5.05242 81.36C5.42115 81.3089 5.82108 81.5812 6.22669 82.123C6.6096 82.6335 6.99818 83.3852 7.37259 84.3269C8.26605 86.5563 9.08577 89.8607 9.602 93.5905C10.0785 97.051 10.1976 100.228 10.0104 102.576ZM42.8814 34.5283C48.2961 29.6071 55.2765 28.4725 58.4788 31.9925C58.9837 32.5456 59.3609 33.181 59.6219 33.8787C61.023 37.6171 59.0347 43.1282 54.471 47.2779C50.7666 50.6475 46.3248 52.2387 42.8644 51.7792C41.2704 51.5693 39.8862 50.9226 38.8765 49.8108C35.677 46.2908 37.4696 39.4494 42.8814 34.5283ZM46.9091 108.13C46.1433 108.72 45.281 109.137 44.3365 109.347C39.421 110.433 34.1538 105.526 32.5711 98.3869C30.9884 91.2448 33.6887 84.5708 38.6042 83.4845C39.8522 83.2065 41.1257 83.3171 42.3539 83.7539C45.9589 85.0331 49.1868 89.1147 50.3695 94.4386C51.6487 100.211 50.1341 105.671 46.9091 108.13ZM71.7446 153.958C71.6964 154.621 71.4723 155.251 71.0582 155.827C68.9054 158.819 62.4497 159.199 56.638 156.672C50.8262 154.148 47.8593 149.672 50.0121 146.677C50.5596 145.916 51.385 145.324 52.4061 144.907C55.4041 143.676 60.0955 143.945 64.4295 145.828C69.1266 147.871 71.963 151.181 71.7446 153.958ZM81.689 12.0867C82.0663 9.46869 88.1503 8.17529 95.2782 9.19639C102.409 10.2203 107.883 13.1702 107.509 15.791C107.384 16.659 106.629 17.3851 105.415 17.924C102.976 19.0132 98.679 19.362 93.9167 18.6813C89.3813 18.0289 85.5153 16.5994 83.3994 14.9656C82.1882 14.0353 81.5529 13.0397 81.689 12.0867ZM85.9862 94.2628C85.9862 86.9477 91.9171 81.0168 99.2321 81.0168C106.547 81.0168 112.478 86.9477 112.478 94.2628C112.478 101.578 106.547 107.509 99.2321 107.509C91.9171 107.509 85.9862 101.578 85.9862 94.2628ZM105.177 171.835C98.6762 173.532 92.9665 172.825 92.4248 170.253C92.2461 169.402 92.6574 168.449 93.5282 167.499C95.2754 165.584 98.8719 163.664 103.212 162.529C107.347 161.451 111.162 161.344 113.53 162.075C114.883 162.489 115.763 163.179 115.961 164.112C116.503 166.682 111.673 170.139 105.177 171.835ZM128.305 46.5092C129 45.403 129.93 44.5294 131.085 43.9763C135.617 41.7923 141.869 45.3661 145.04 51.9551C148.214 58.5469 147.108 65.6605 142.575 67.8446C141.704 68.2644 140.765 68.4686 139.801 68.4828C135.748 68.5423 131.178 65.1869 128.614 59.8629C126.249 54.9475 126.263 49.7427 128.305 46.5092ZM146.526 132.642C141.625 138.071 134.622 139.736 130.886 136.361C129.936 135.504 129.289 134.403 128.935 133.147C127.885 129.468 129.343 124.47 132.999 120.423C136.959 116.038 142.289 114.106 146.16 115.309C147.085 115.592 147.925 116.055 148.642 116.702C152.378 120.077 151.43 127.213 146.526 132.642ZM162.058 45.4512C161.772 45.6895 161.287 45.6668 160.66 45.42C160.064 45.1874 159.338 44.7535 158.521 44.1521C156.59 42.7283 154.15 40.3542 151.745 37.4526C149.519 34.7665 147.74 32.1287 146.662 30.0326C146.143 29.0285 145.789 28.1492 145.619 27.4486C145.431 26.6629 145.48 26.1013 145.8 25.8375C147.006 24.8363 151.623 28.4187 156.113 33.8333C160.603 39.248 163.264 44.45 162.058 45.4512ZM170.641 106.011C170.27 105.986 169.938 105.634 169.654 105.021C169.388 104.44 169.164 103.626 168.993 102.624C168.588 100.259 168.477 96.8552 168.755 93.0998C169.013 89.6168 169.558 86.4854 170.236 84.2276C170.559 83.1441 170.914 82.262 171.277 81.6408C171.685 80.9459 172.108 80.5743 172.525 80.6055C174.087 80.7218 174.93 86.5052 174.411 93.5196C173.895 100.534 172.204 106.127 170.641 106.011Z" fill="#F4E823"/><path d="M113.573 161.936C114.943 162.355 115.888 163.069 116.104 164.081V164.082C116.25 164.776 116.03 165.514 115.539 166.245C115.048 166.976 114.277 167.715 113.293 168.42C111.324 169.83 108.475 171.125 105.214 171.977C101.951 172.828 98.8795 173.078 96.5491 172.789C95.3845 172.645 94.3958 172.365 93.6604 171.951C92.9241 171.537 92.4293 170.979 92.2825 170.282C92.0896 169.363 92.5386 168.362 93.4211 167.399L93.4836 167.332L93.5715 167.359C95.9007 168.074 99.6887 167.975 103.811 166.897C108.137 165.766 111.703 163.859 113.423 161.977L113.486 161.909L113.573 161.936ZM52.552 144.918C52.4499 146.253 53.0799 147.737 54.3342 149.15C55.5868 150.561 57.4511 151.888 59.7825 152.902L60.1868 153.073C64.3786 154.788 68.8313 154.994 71.6897 153.823L71.9075 153.734L71.8909 153.969C71.8406 154.659 71.6065 155.315 71.177 155.912C70.063 157.46 67.8563 158.312 65.2288 158.466C62.5948 158.62 59.5051 158.078 56.5803 156.807C53.6566 155.537 51.4358 153.77 50.217 151.932C48.9977 150.092 48.77 148.155 49.8938 146.592C50.4609 145.804 51.3114 145.197 52.3508 144.772L52.5696 144.683L52.552 144.918ZM146.203 115.17C147.147 115.459 148.005 115.932 148.74 116.594C150.653 118.323 151.356 121.005 150.969 123.922C150.582 126.839 149.103 130.007 146.634 132.74C144.166 135.474 141.165 137.265 138.303 137.945C135.441 138.626 132.702 138.199 130.788 136.47C129.816 135.593 129.155 134.467 128.794 133.188L128.722 132.929L128.978 133.009C132.776 134.183 138.047 132.293 141.988 127.936C145.621 123.913 147.048 118.965 146.02 115.35L145.947 115.092L146.203 115.17ZM38.8118 83.2939C40.0121 83.0735 41.2295 83.2 42.4026 83.6172L42.6555 83.707L42.4426 83.8701C39.2848 86.2881 37.7693 91.6774 39.0383 97.4141C40.2112 102.706 43.415 106.736 46.9583 107.993L47.2102 108.083L46.9983 108.246C46.2167 108.848 45.3348 109.275 44.3684 109.49H44.3674C41.8497 110.046 39.2572 109.064 37.1047 107.059C34.9515 105.053 33.2259 102.014 32.429 98.4189C31.6321 94.823 31.9119 91.338 33.0159 88.6104C34.1196 85.8837 36.0547 83.8994 38.5725 83.3428L38.8118 83.2939ZM5.03247 81.2158C5.26133 81.1843 5.48877 81.2552 5.70532 81.3975C5.92119 81.5394 6.13446 81.7576 6.34302 82.0361L6.49048 82.2441C6.83504 82.7555 7.17853 83.4446 7.50806 84.2734L7.52075 84.3057L7.51782 84.3389C7.3289 86.6768 7.44958 89.843 7.92505 93.2959C8.43742 97.0154 9.25811 100.308 10.1458 102.522L10.1584 102.555L10.1555 102.588C10.0782 103.578 9.94158 104.429 9.75317 105.095L9.66919 105.368C9.54033 105.759 9.38714 106.081 9.2063 106.315C9.02486 106.55 8.8062 106.708 8.54907 106.743C8.30841 106.776 8.07042 106.696 7.84497 106.54C7.62019 106.384 7.39824 106.145 7.18091 105.842C6.74603 105.234 6.31005 104.338 5.89673 103.227C5.06916 101 4.3185 97.8773 3.83813 94.3857C3.35495 90.894 3.23394 87.6843 3.42896 85.3174C3.52636 84.1353 3.70267 83.1544 3.95728 82.4521C4.08445 82.1015 4.23428 81.8123 4.40845 81.6016C4.5834 81.39 4.7917 81.249 5.03247 81.2158ZM172.535 80.46C172.778 80.4781 172.994 80.6063 173.182 80.8066C173.369 81.0062 173.537 81.2857 173.686 81.6279C173.984 82.313 174.222 83.2806 174.393 84.4541C174.736 86.8045 174.816 90.0159 174.556 93.5303C174.297 97.0446 173.744 100.208 173.058 102.481C172.715 103.617 172.337 104.538 171.941 105.172C171.743 105.488 171.536 105.74 171.322 105.91C171.106 106.08 170.873 106.174 170.63 106.156V106.155C170.399 106.139 170.192 106.023 170.011 105.839C169.875 105.701 169.75 105.521 169.634 105.308L169.522 105.082C169.248 104.484 169.021 103.656 168.85 102.648L168.844 102.615L168.854 102.582C169.53 100.337 170.074 97.2138 170.331 93.7383C170.609 89.9935 170.495 86.6021 170.092 84.252L170.086 84.2188L170.096 84.1855C170.421 83.0968 170.779 82.2015 171.151 81.5664C171.359 81.2117 171.578 80.9298 171.804 80.7393C172.031 80.5484 172.277 80.4407 172.535 80.46ZM131.022 43.8447C133.343 42.7262 136.091 43.089 138.645 44.5488C141.199 46.0093 143.574 48.574 145.171 51.8916C146.769 55.2107 147.293 58.6671 146.841 61.5752C146.39 64.4825 144.96 66.8568 142.638 67.9756C141.747 68.4053 140.787 68.6144 139.803 68.6289L139.534 68.6328L139.677 68.4053C141.682 65.2242 141.709 60.0753 139.358 55.1924C136.808 49.8982 132.283 46.5996 128.307 46.6553L128.038 46.6592L128.182 46.4316C128.89 45.3048 129.84 44.4109 131.022 43.8447ZM51.4866 29.9512C54.3384 29.4877 56.9409 30.0857 58.5862 31.8936H58.5872C59.1053 32.4612 59.492 33.1133 59.759 33.8271L59.844 34.0547L59.6028 34.0234C56.1971 33.5712 51.7962 35.1434 48.1135 38.4932C45.8486 40.5511 44.2249 42.9467 43.3411 45.2861C42.4567 47.6271 42.3168 49.9012 43.0012 51.7275L43.0862 51.9551L42.8459 51.9238C41.2239 51.7103 39.8056 51.0499 38.7688 49.9082V49.9092C37.125 48.1007 36.7767 45.4531 37.509 42.6582C38.2419 39.8617 40.0598 36.8966 42.7834 34.4199C45.5085 31.9434 48.6328 30.4151 51.4866 29.9512ZM146.412 25.5264C146.686 25.5402 147 25.6252 147.345 25.7686C148.035 26.0554 148.877 26.5876 149.815 27.3145C151.692 28.77 153.976 31.0274 156.226 33.7402C158.475 36.4532 160.269 39.117 161.351 41.2314C161.891 42.2875 162.258 43.214 162.412 43.9453C162.489 44.3105 162.515 44.6351 162.478 44.9062C162.441 45.1784 162.339 45.4081 162.152 45.5635C161.973 45.7116 161.742 45.7711 161.483 45.7637C161.289 45.7581 161.074 45.7151 160.843 45.6406L160.607 45.5557C159.994 45.3164 159.256 44.874 158.435 44.2695L158.407 44.249L158.392 44.2188C157.323 42.1319 155.551 39.5025 153.323 36.8223C150.929 33.9294 148.495 31.5651 146.575 30.1504L146.548 30.1299L146.532 30.0996C146.011 29.0905 145.651 28.1996 145.477 27.4834V27.4824C145.381 27.0814 145.343 26.7268 145.374 26.4326C145.405 26.1378 145.508 25.8897 145.707 25.7256L145.78 25.6719C145.955 25.5568 146.172 25.5142 146.412 25.5264ZM85.9211 9.13379C88.4009 8.60645 91.7219 8.5395 95.2981 9.05176C98.8756 9.56548 102.045 10.5626 104.277 11.7656C105.392 12.3668 106.281 13.024 106.868 13.7031C107.456 14.3819 107.754 15.0992 107.653 15.8115C107.517 16.7551 106.703 17.5111 105.474 18.0566L105.395 18.0918L105.325 18.0391C103.24 16.4327 99.3993 15.0061 94.8713 14.3584C90.124 13.6766 85.8612 14.0285 83.4583 15.0986L83.3792 15.1338L83.3098 15.0811C82.089 14.1431 81.3963 13.1007 81.5442 12.0654C81.6469 11.3538 82.1355 10.7498 82.8899 10.2637C83.6448 9.77739 84.6822 9.39729 85.9211 9.13379Z" fill="#CCC10B"/><path d="M105.747 1.81689C145.337 10.1917 175.05 45.3367 175.05 87.4204C175.05 135.744 135.876 174.92 87.5493 174.92C48.4722 174.92 15.3817 149.307 4.146 113.952C18.3124 124.602 36.6595 131.029 56.7026 131.029C98.2997 131.029 132.592 103.353 137.363 67.6714C138.032 67.833 138.698 67.9134 139.351 67.9038C140.315 67.8896 141.254 67.6848 142.125 67.2651C146.657 65.0811 147.763 57.9673 144.589 51.3755C142.547 47.132 139.226 44.1418 135.911 43.1323C131.61 26.3849 120.705 11.8599 105.747 1.81689ZM113.081 161.497C110.712 160.765 106.897 160.872 102.761 161.95C98.4216 163.084 94.8248 165.005 93.0776 166.919C92.2071 167.869 91.7956 168.823 91.9741 169.673C92.5159 172.246 98.226 172.953 104.727 171.256C111.222 169.56 116.053 166.102 115.511 163.533C115.313 162.6 114.433 161.911 113.081 161.497ZM63.979 145.25C59.645 143.366 54.9536 143.097 51.9556 144.328C50.9347 144.745 50.1094 145.337 49.562 146.097C47.4092 149.092 50.3762 153.569 56.188 156.093C61.9997 158.62 68.4551 158.24 70.6079 155.248C71.022 154.672 71.2462 154.042 71.2944 153.378C71.5128 150.602 68.6761 147.292 63.979 145.25ZM145.71 114.73C141.839 113.527 136.509 115.458 132.549 119.843C128.893 123.891 127.435 128.889 128.485 132.568C128.839 133.824 129.486 134.925 130.436 135.782C134.172 139.157 141.174 137.492 146.076 132.063C150.98 126.634 151.927 119.498 148.192 116.123C147.474 115.476 146.635 115.014 145.71 114.73ZM172.075 80.0269C171.658 79.9957 171.235 80.3671 170.827 81.062C170.464 81.6832 170.109 82.5655 169.786 83.6489C169.108 85.9067 168.563 89.0381 168.305 92.521C168.027 96.2763 168.138 99.6799 168.543 102.045C168.714 103.046 168.937 103.86 169.204 104.442C169.487 105.054 169.819 105.407 170.191 105.432C171.754 105.548 173.444 99.9551 173.96 92.9409C174.479 85.927 173.637 80.1439 172.075 80.0269ZM155.663 33.2544C151.173 27.84 146.556 24.2575 145.35 25.2583C145.03 25.5221 144.981 26.0839 145.168 26.8696C145.339 27.5702 145.693 28.4496 146.212 29.4536C147.29 31.5497 149.069 34.1876 151.295 36.8735C153.7 39.7749 156.139 42.1489 158.071 43.5728C158.888 44.174 159.614 44.6087 160.209 44.8413C160.836 45.088 161.321 45.1105 161.608 44.8726C162.813 43.8713 160.153 38.6691 155.663 33.2544Z" fill="black" fill-opacity="0.1"/></svg>