<svg xmlns="http://www.w3.org/2000/svg" width="275" height="275" viewBox="0 0 275 275" fill="none"><path d="M216.639 99.9985C225.115 105.261 233.198 111.737 240.595 119.394C280.574 160.771 285.42 220.945 251.419 253.796C217.419 286.647 157.447 279.734 117.469 238.357C110.844 231.501 105.185 224.128 100.507 216.449C111.706 221.656 124.19 224.562 137.354 224.562C185.681 224.562 224.854 185.386 224.854 137.062C224.854 123.814 221.909 111.253 216.639 99.9985Z" fill="black" fill-opacity="0.1"/><path d="M138 50.5C89.6735 50.5 50.5 89.6735 50.5 138C50.5 186.327 89.6735 225.5 138 225.5C186.327 225.5 225.5 186.324 225.5 138C225.5 89.6763 186.324 50.5 138 50.5ZM60.0104 152.576C59.9225 153.702 59.758 154.638 59.5311 155.322C59.2786 156.088 58.944 156.542 58.5298 156.598C56.9783 156.811 54.9418 151.334 53.9831 144.365C53.0187 137.396 53.5009 131.573 55.0524 131.36C55.4211 131.309 55.8211 131.581 56.2267 132.123C56.6096 132.634 56.9982 133.385 57.3726 134.327C58.2661 136.556 59.0858 139.861 59.602 143.591C60.0785 147.051 60.1976 150.228 60.0104 152.576ZM92.8814 84.5283C98.2961 79.6071 105.276 78.4725 108.479 81.9925C108.984 82.5456 109.361 83.181 109.622 83.8787C111.023 87.6171 109.035 93.1282 104.471 97.2779C100.767 100.647 96.3248 102.239 92.8644 101.779C91.2704 101.569 89.8862 100.923 88.8765 99.8108C85.677 96.2908 87.4696 89.4494 92.8814 84.5283ZM96.9091 158.13C96.1433 158.72 95.281 159.137 94.3365 159.347C89.421 160.433 84.1538 155.526 82.5711 148.387C80.9884 141.245 83.6887 134.571 88.6042 133.484C89.8522 133.207 91.1257 133.317 92.3539 133.754C95.9589 135.033 99.1868 139.115 100.37 144.439C101.649 150.211 100.134 155.671 96.9091 158.13ZM121.745 203.958C121.696 204.621 121.472 205.251 121.058 205.827C118.905 208.819 112.45 209.199 106.638 206.672C100.826 204.148 97.8593 199.672 100.012 196.677C100.56 195.916 101.385 195.324 102.406 194.907C105.404 193.676 110.096 193.945 114.43 195.828C119.127 197.871 121.963 201.181 121.745 203.958ZM131.689 62.0867C132.066 59.4687 138.15 58.1753 145.278 59.1964C152.409 60.2203 157.883 63.1702 157.509 65.791C157.384 66.659 156.629 67.3851 155.415 67.924C152.976 69.0132 148.679 69.362 143.917 68.6813C139.381 68.0289 135.515 66.5994 133.399 64.9656C132.188 64.0353 131.553 63.0397 131.689 62.0867ZM135.986 144.263C135.986 136.948 141.917 131.017 149.232 131.017C156.547 131.017 162.478 136.948 162.478 144.263C162.478 151.578 156.547 157.509 149.232 157.509C141.917 157.509 135.986 151.578 135.986 144.263ZM155.177 221.835C148.676 223.532 142.967 222.825 142.425 220.253C142.246 219.402 142.657 218.449 143.528 217.499C145.275 215.584 148.872 213.664 153.212 212.529C157.347 211.451 161.162 211.344 163.53 212.075C164.883 212.489 165.763 213.179 165.961 214.112C166.503 216.682 161.673 220.139 155.177 221.835ZM178.305 96.5092C179 95.403 179.93 94.5294 181.085 93.9763C185.617 91.7923 191.869 95.3661 195.04 101.955C198.214 108.547 197.108 115.661 192.575 117.845C191.704 118.264 190.765 118.469 189.801 118.483C185.748 118.542 181.178 115.187 178.614 109.863C176.249 104.947 176.263 99.7427 178.305 96.5092ZM196.526 182.642C191.625 188.071 184.622 189.736 180.886 186.361C179.936 185.504 179.289 184.403 178.935 183.147C177.885 179.468 179.343 174.47 182.999 170.423C186.959 166.038 192.289 164.106 196.16 165.309C197.085 165.592 197.925 166.055 198.642 166.702C202.378 170.077 201.43 177.213 196.526 182.642ZM212.058 95.4512C211.772 95.6895 211.287 95.6668 210.66 95.42C210.064 95.1874 209.338 94.7535 208.521 94.1521C206.59 92.7283 204.15 90.3542 201.745 87.4526C199.519 84.7665 197.74 82.1287 196.662 80.0326C196.143 79.0285 195.789 78.1492 195.619 77.4486C195.431 76.6629 195.48 76.1013 195.8 75.8375C197.006 74.8363 201.623 78.4187 206.113 83.8333C210.603 89.248 213.264 94.45 212.058 95.4512ZM220.641 156.011C220.27 155.986 219.938 155.634 219.654 155.021C219.388 154.44 219.164 153.626 218.993 152.624C218.588 150.259 218.477 146.855 218.755 143.1C219.013 139.617 219.558 136.485 220.236 134.228C220.559 133.144 220.914 132.262 221.277 131.641C221.685 130.946 222.108 130.574 222.525 130.606C224.087 130.722 224.93 136.505 224.411 143.52C223.895 150.534 222.204 156.127 220.641 156.011Z" fill="#F4E823"/><path d="M163.573 211.936C164.943 212.355 165.888 213.069 166.104 214.081V214.082C166.25 214.776 166.03 215.514 165.539 216.245C165.048 216.976 164.277 217.715 163.293 218.42C161.324 219.83 158.475 221.125 155.214 221.977C151.951 222.828 148.879 223.078 146.549 222.789C145.384 222.645 144.396 222.365 143.66 221.951C142.924 221.537 142.429 220.979 142.282 220.282C142.09 219.363 142.539 218.362 143.421 217.399L143.484 217.332L143.572 217.359C145.901 218.074 149.689 217.975 153.811 216.897C158.137 215.766 161.703 213.859 163.423 211.977L163.486 211.909L163.573 211.936ZM102.552 194.918C102.45 196.253 103.08 197.737 104.334 199.15C105.587 200.561 107.451 201.888 109.782 202.902L110.187 203.073C114.379 204.788 118.831 204.994 121.69 203.823L121.907 203.734L121.891 203.969C121.841 204.659 121.607 205.315 121.177 205.912C120.063 207.46 117.856 208.312 115.229 208.466C112.595 208.62 109.505 208.078 106.58 206.807C103.657 205.537 101.436 203.77 100.217 201.932C98.9977 200.092 98.77 198.155 99.8938 196.592C100.461 195.804 101.311 195.197 102.351 194.772L102.57 194.683L102.552 194.918ZM196.203 165.17C197.147 165.459 198.005 165.932 198.74 166.594C200.653 168.323 201.356 171.005 200.969 173.922C200.582 176.839 199.103 180.007 196.634 182.74C194.166 185.474 191.165 187.265 188.303 187.945C185.441 188.626 182.702 188.199 180.788 186.47C179.816 185.593 179.155 184.467 178.794 183.188L178.722 182.929L178.978 183.009C182.776 184.183 188.047 182.293 191.988 177.936C195.621 173.913 197.048 168.965 196.02 165.35L195.947 165.092L196.203 165.17ZM88.8118 133.294C90.0121 133.074 91.2295 133.2 92.4026 133.617L92.6555 133.707L92.4426 133.87C89.2848 136.288 87.7693 141.677 89.0383 147.414C90.2112 152.706 93.415 156.736 96.9583 157.993L97.2102 158.083L96.9983 158.246C96.2167 158.848 95.3348 159.275 94.3684 159.49H94.3674C91.8497 160.046 89.2572 159.064 87.1047 157.059C84.9515 155.053 83.2259 152.014 82.429 148.419C81.6321 144.823 81.9119 141.338 83.0159 138.61C84.1196 135.884 86.0547 133.899 88.5725 133.343L88.8118 133.294ZM55.0325 131.216C55.2613 131.184 55.4888 131.255 55.7053 131.397C55.9212 131.539 56.1345 131.758 56.343 132.036L56.4905 132.244C56.835 132.755 57.1785 133.445 57.5081 134.273L57.5208 134.306L57.5178 134.339C57.3289 136.677 57.4496 139.843 57.925 143.296C58.4374 147.015 59.2581 150.308 60.1458 152.522L60.1584 152.555L60.1555 152.588C60.0782 153.578 59.9416 154.429 59.7532 155.095L59.6692 155.368C59.5403 155.759 59.3871 156.081 59.2063 156.315C59.0249 156.55 58.8062 156.708 58.5491 156.743C58.3084 156.776 58.0704 156.696 57.845 156.54C57.6202 156.384 57.3982 156.145 57.1809 155.842C56.746 155.234 56.3101 154.338 55.8967 153.227C55.0692 151 54.3185 147.877 53.8381 144.386C53.355 140.894 53.2339 137.684 53.429 135.317C53.5264 134.135 53.7027 133.154 53.9573 132.452C54.0844 132.102 54.2343 131.812 54.4084 131.602C54.5834 131.39 54.7917 131.249 55.0325 131.216ZM222.535 130.46C222.778 130.478 222.994 130.606 223.182 130.807C223.369 131.006 223.537 131.286 223.686 131.628C223.984 132.313 224.222 133.281 224.393 134.454C224.736 136.805 224.816 140.016 224.556 143.53C224.297 147.045 223.744 150.208 223.058 152.481C222.715 153.617 222.337 154.538 221.941 155.172C221.743 155.488 221.536 155.74 221.322 155.91C221.106 156.08 220.873 156.174 220.63 156.156V156.155C220.399 156.139 220.192 156.023 220.011 155.839C219.875 155.701 219.75 155.521 219.634 155.308L219.522 155.082C219.248 154.484 219.021 153.656 218.85 152.648L218.844 152.615L218.854 152.582C219.53 150.337 220.074 147.214 220.331 143.738C220.609 139.993 220.495 136.602 220.092 134.252L220.086 134.219L220.096 134.186C220.421 133.097 220.779 132.202 221.151 131.566C221.359 131.212 221.578 130.93 221.804 130.739C222.031 130.548 222.277 130.441 222.535 130.46ZM181.022 93.8447C183.343 92.7262 186.091 93.089 188.645 94.5488C191.199 96.0093 193.574 98.574 195.171 101.892C196.769 105.211 197.293 108.667 196.841 111.575C196.39 114.482 194.96 116.857 192.638 117.976C191.747 118.405 190.787 118.614 189.803 118.629L189.534 118.633L189.677 118.405C191.682 115.224 191.709 110.075 189.358 105.192C186.808 99.8982 182.283 96.5996 178.307 96.6553L178.038 96.6592L178.182 96.4316C178.89 95.3048 179.84 94.4109 181.022 93.8447ZM101.487 79.9512C104.338 79.4877 106.941 80.0857 108.586 81.8936H108.587C109.105 82.4612 109.492 83.1133 109.759 83.8271L109.844 84.0547L109.603 84.0234C106.197 83.5712 101.796 85.1434 98.1135 88.4932C95.8486 90.5511 94.2249 92.9467 93.3411 95.2861C92.4567 97.6271 92.3168 99.9012 93.0012 101.728L93.0862 101.955L92.8459 101.924C91.2239 101.71 89.8056 101.05 88.7688 99.9082V99.9092C87.125 98.1007 86.7767 95.4531 87.509 92.6582C88.2419 89.8617 90.0598 86.8966 92.7834 84.4199C95.5085 81.9434 98.6328 80.4151 101.487 79.9512ZM196.412 75.5264C196.686 75.5402 197 75.6252 197.345 75.7686C198.035 76.0554 198.877 76.5876 199.815 77.3145C201.692 78.77 203.976 81.0274 206.226 83.7402C208.475 86.4532 210.269 89.117 211.351 91.2314C211.891 92.2875 212.258 93.214 212.412 93.9453C212.489 94.3105 212.515 94.6351 212.478 94.9062C212.441 95.1784 212.339 95.4081 212.152 95.5635C211.973 95.7116 211.742 95.7711 211.483 95.7637C211.289 95.7581 211.074 95.7151 210.843 95.6406L210.607 95.5557C209.994 95.3164 209.256 94.874 208.435 94.2695L208.407 94.249L208.392 94.2188C207.323 92.1319 205.551 89.5025 203.323 86.8223C200.929 83.9294 198.495 81.5651 196.575 80.1504L196.548 80.1299L196.532 80.0996C196.011 79.0905 195.651 78.1996 195.477 77.4834V77.4824C195.381 77.0814 195.343 76.7268 195.374 76.4326C195.405 76.1378 195.508 75.8897 195.707 75.7256L195.78 75.6719C195.955 75.5568 196.172 75.5142 196.412 75.5264ZM135.921 59.1338C138.401 58.6065 141.722 58.5395 145.298 59.0518C148.876 59.5655 152.045 60.5626 154.277 61.7656C155.392 62.3668 156.281 63.024 156.868 63.7031C157.456 64.3819 157.754 65.0992 157.653 65.8115C157.517 66.7551 156.703 67.5111 155.474 68.0566L155.395 68.0918L155.325 68.0391C153.24 66.4327 149.399 65.0061 144.871 64.3584C140.124 63.6766 135.861 64.0285 133.458 65.0986L133.379 65.1338L133.31 65.0811C132.089 64.1431 131.396 63.1007 131.544 62.0654C131.647 61.3538 132.135 60.7498 132.89 60.2637C133.645 59.7774 134.682 59.3973 135.921 59.1338Z" fill="#CCC10B"/><path d="M156.197 52.396C195.787 60.7708 225.5 95.9158 225.5 138C225.5 186.323 186.326 225.5 138 225.5C98.9224 225.499 65.8319 199.886 54.5962 164.531C68.7626 175.181 87.1097 181.608 107.153 181.608C148.75 181.608 183.042 153.932 187.813 118.25C188.482 118.412 189.148 118.493 189.801 118.483C190.766 118.469 191.704 118.264 192.575 117.844C197.107 115.66 198.213 108.546 195.04 101.955C192.997 97.7111 189.676 94.7209 186.361 93.7114C182.06 76.964 171.155 62.439 156.197 52.396ZM163.531 212.076C161.162 211.344 157.347 211.451 153.211 212.529C148.872 213.663 145.275 215.584 143.528 217.499C142.657 218.449 142.246 219.402 142.424 220.252C142.966 222.825 148.676 223.532 155.177 221.835C161.673 220.139 166.503 216.682 165.961 214.112C165.763 213.179 164.883 212.49 163.531 212.076ZM114.429 195.829C110.095 193.945 105.404 193.676 102.406 194.907C101.385 195.324 100.56 195.916 100.012 196.676C97.8594 199.672 100.826 204.148 106.638 206.672C112.45 209.199 118.905 208.819 121.058 205.827C121.472 205.251 121.696 204.621 121.745 203.958C121.963 201.181 119.126 197.871 114.429 195.829ZM196.161 165.309C192.289 164.106 186.959 166.037 183 170.422C179.343 174.47 177.886 179.468 178.935 183.147C179.29 184.403 179.936 185.504 180.886 186.361C184.622 189.736 191.625 188.071 196.526 182.642C201.43 177.213 202.378 170.077 198.642 166.702C197.925 166.055 197.085 165.593 196.161 165.309ZM222.525 130.606C222.108 130.575 221.685 130.946 221.277 131.641C220.914 132.262 220.559 133.145 220.236 134.228C219.558 136.486 219.013 139.617 218.755 143.1C218.477 146.855 218.588 150.259 218.994 152.625C219.164 153.626 219.387 154.44 219.654 155.021C219.937 155.634 220.27 155.986 220.641 156.011C222.204 156.128 223.894 150.534 224.411 143.52C224.93 136.506 224.088 130.723 222.525 130.606ZM206.113 83.8335C201.623 78.4191 197.006 74.8366 195.8 75.8374C195.48 76.1012 195.431 76.663 195.619 77.4487C195.789 78.1493 196.144 79.0287 196.663 80.0327C197.74 82.1288 199.519 84.7667 201.746 87.4526C204.151 90.354 206.59 92.728 208.521 94.1519C209.338 94.7531 210.064 95.1878 210.66 95.4204C211.286 95.6671 211.772 95.6896 212.058 95.4517C213.264 94.4504 210.603 89.2482 206.113 83.8335Z" fill="black" fill-opacity="0.1"/></svg>